<?xml version="1.0" encoding="utf-8"?>
<!-- Generator: Adobe Illustrator 18.0.0, SVG Export Plug-In . SVG Version: 6.00 Build 0)  -->
<!DOCTYPE svg PUBLIC "-//W3C//DTD SVG 1.1//EN" "http://www.w3.org/Graphics/SVG/1.1/DTD/svg11.dtd">
<svg version="1.1" xmlns="http://www.w3.org/2000/svg" xmlns:xlink="http://www.w3.org/1999/xlink" x="0px" y="0px"
	 viewBox="0 0 621 175.1" enable-background="new 0 0 621 175.1" xml:space="preserve">
<g id="Layer_10" display="none">
</g>
<g id="Layer_11">
	<path fill-rule="evenodd" clip-rule="evenodd" fill="#80008e" d="M568,157v18c0,0,20,0.1,36,0c13.3,0.1,17-11.6,17-16
		c0-0.7,0-1.6,0-5c-0.1-12.1-10.3-15-15-15s-12.7,0-17,0c-3.4-0.1-3-2-3-4s0-111.9,0-122s-6.6-11-8-11c-1.4,0-0.3,0-2,0
		s-7.8,0.9-8,11c-0.2,8.2,0,114.2,0,120c0,12.7,8.8,22.9,21,23c4.8,0,11.5,0,14,0c0,0.5,0,1,0,1H568z"/>
	<path fill-rule="evenodd" clip-rule="evenodd" fill="#80008e" d="M479,57v18h54v41c0,0-31.3,0-34,0c-2.7,0-18,1.6-18,18
		c0,5.5,0,24,0,24s-0.3,17,18,17c5.8,0,63,0,63,0v-18h-63v-23c0,0,21.4,0,32,0s19.9-6.5,20-19c0-3.4,0.1-37,0-39
		c-0.1-2-0.1-19-20-19C521.3,57,479,57,479,57z"/>
	<path fill-rule="evenodd" clip-rule="evenodd" fill="#80008e" d="M379,95c0,0,2.5,0,5,0c11,0,16.6,8.4,19,12c2.4,3.5,24,48,24,48
		s0.6,0.1,1,0c4.7-15.6,21.7-78.7,23-83c1.5-4.9,7.6-15,22-15c0,7.3,0,14.7,0,18c-6.5,0.1-6.6,3.5-8,9c-1.6,6.3-12.1,45.1-20,73
		c-2.6,9.1-9.9,17-16,17c-1.6,0-1.6,0.1-3,0c-8.4-0.3-14-11-14-11s-16.8-34.6-22-45c-3.4-6.7-11-5-11-5V95z"/>
	<path fill-rule="evenodd" clip-rule="evenodd" fill="#80008e" d="M366,113c0,0,0,38.8,0,46c0,7.2-8.2,16-16,16c-7.8,0-33.3,0-45,0
		c-11.8,0-17-8.8-17-17c0-6.5,0-38.9,0-46c0-6.5,5.4-17,17-17s43,0,43,0V75h-64V57c0,0,52.6,0,65,0s17,12.1,17,19c0,6.9,0,19,0,19h7
		v18H366z M348,113h-42v44h42V113z"/>
	<path fill-rule="evenodd" clip-rule="evenodd" fill="#80008e" d="M204,157v18c0,0,6.2,0,13,0c8.8,0,16.1-6.1,16-18c0-7.5,0-82,0-82
		h45V57c0,0-38.4,0.1-45,0c-12.7,0-17.9,12.2-18,18c-0.1,5.8,0,82,0,82H204z"/>
	<path fill-rule="evenodd" clip-rule="evenodd" fill="#80008e" d="M149,175v-18h15c0,0,0-33,0-42c0-1.4-1.6-3-3-3c-1.4,0-7.7,0-9,0
		s-3-1.4-3-3c0-2,0-8.3,0-10c0-1.5,1.4-3,3-3c2.5,0,20.3,0.2,25,0c3.8-0.2,6,1.7,6,6c-0.2,5.5,0,55,0,55h15v18H149z M170.5,84
		c-6.9,0-12.5-5.6-12.5-12.5c0-6.9,5.6-12.5,12.5-12.5c6.9,0,12.5,5.6,12.5,12.5C183,78.4,177.4,84,170.5,84z"/>
	<path fill-rule="evenodd" clip-rule="evenodd" fill="#80008e" d="M0,165c0,7.7,9,9,9,9s8.9-1.3,9-9c0-5.4,0-147,0-147h20
		c0,0,0,46.3,0,51c0,7,8,16,16,16c8,0,15.1,0,22,0c9.9,0,16.9-9,17-19c0.1-8,0-48,0-48h20c0,0,0.1,131.4,0,139
		c-0.1,9,6.1,17.9,14,18c7.9,0.1,16,0,16,0v-18h-12c0,0,0.1-138,0-143s-7.1-14-14-14c-6.9,0-20.3,0-28,0s-14.1,9-14,17
		c0,6.1,0,50,0,50H56c0,0-0.1-44,0-50c0.1-8-4.4-17.1-15-17c-8.4,0.1-15.7-0.1-25,0C3.7,0.2,0,9.1,0,17C0,21.3,0,159,0,165z"/>
</g>
</svg>
