<?xml version="1.0" standalone="no"?>
<!DOCTYPE svg PUBLIC "-//W3C//DTD SVG 20010904//EN"
 "http://www.w3.org/TR/2001/REC-SVG-20010904/DTD/svg10.dtd">
<svg version="1.0" xmlns="http://www.w3.org/2000/svg"
 width="512.000000pt" height="512.000000pt" viewBox="0 0 512.000000 512.000000"
 preserveAspectRatio="xMidYMid meet">
<metadata>
Created by potrace 1.11, written by Peter Selinger 2001-2013
</metadata>
<g transform="translate(0.000000,512.000000) scale(0.100000,-0.100000)"
fill="#000000" stroke="none">
<path d="M0 2560 l0 -2560 175 0 175 0 2 2162 3 2163 23 75 c70 227 200 360
398 405 55 13 147 15 572 13 498 -3 508 -3 567 -25 166 -63 302 -210 373 -405
l27 -73 5 -790 c5 -733 6 -792 23 -816 32 -48 93 -62 147 -34 62 32 60 0 60
833 0 725 1 762 20 837 27 104 77 207 144 293 62 78 125 129 212 170 l59 27
380 3 c209 1 484 -1 610 -6 222 -8 232 -9 285 -36 115 -57 170 -137 228 -326
15 -50 17 -194 22 -1585 l5 -1530 27 -46 c60 -101 146 -129 400 -129 l178 0 0
1970 0 1970 -2560 0 -2560 0 0 -2560z"/>
<path d="M3460 3348 c0 -321 -5 -621 -10 -668 -15 -132 -45 -235 -104 -355
-133 -270 -351 -450 -652 -537 -70 -20 -100 -23 -264 -22 -173 0 -191 2 -274
28 -375 115 -645 413 -721 797 -15 74 -17 160 -16 707 l2 622 -81 0 -80 0 0
-548 c0 -302 -3 -1184 -7 -1960 l-6 -1412 1936 0 1937 0 0 134 0 133 -222 6
c-237 6 -343 20 -482 64 -238 74 -437 213 -585 408 -71 93 -155 267 -188 390
l-28 100 -3 1348 -2 1347 -75 0 -75 0 0 -582z"/>
</g>
</svg>
